<svg xmlns="http://www.w3.org/2000/svg" viewBox="0 0 636.01 201.67"><defs><style>.cls-1{fill:#e2e2e2;}</style></defs><title>Asset 2</title><g id="Layer_2" data-name="Layer 2"><g id="Layer_1-2" data-name="Layer 1"><path class="cls-1" d="M92.48,8.42a8.23,8.23,0,0,1,2.44-5.91A7.85,7.85,0,0,1,100.75,0a8.11,8.11,0,0,1,6,2.44,8.13,8.13,0,0,1,2.44,6,8,8,0,0,1-2.44,5.83,8.14,8.14,0,0,1-6,2.43,7.81,7.81,0,0,1-5.83-2.51A8,8,0,0,1,92.48,8.42Zm3.25,21.85h10.19v78.39H95.73Z"/><path class="cls-1" d="M126.74,30.27h10.18v14Q149,28.2,166.3,28.2A27.8,27.8,0,0,1,182.25,33a26,26,0,0,1,10,12.55q3,7.74,3,22.81v40.3h-10V71.31q0-13.74-1.26-18.6a22.66,22.66,0,0,0-3.84-8.27,16.56,16.56,0,0,0-6.57-5.17,22.69,22.69,0,0,0-9.3-1.77,25,25,0,0,0-11.51,2.8,27.41,27.41,0,0,0-9.3,7.83,28.44,28.44,0,0,0-5.17,10.33q-1.33,5.32-1.33,21.41v28.79H126.74Z"/><path class="cls-1" d="M80,139.42l-7.66,4.82q-9.91-13.19-27.22-13.18-13.62,0-22.83,8.72a28.54,28.54,0,0,0-9.22,21.62,30.41,30.41,0,0,0,9.08,22.12q9.07,9.22,23,9.22,16.59,0,27.22-13.19l7.66,5.1a36.55,36.55,0,0,1-15.24,12.62,48.85,48.85,0,0,1-20.63,4.4q-17.44,0-29.14-11.49a37.65,37.65,0,0,1-11.7-27.93,38.91,38.91,0,0,1,11.84-28.57Q27,121.85,45.56,121.84a44.27,44.27,0,0,1,20.21,4.68A34.12,34.12,0,0,1,80,139.42Z"/><path class="cls-1" d="M89.52,162a39.25,39.25,0,0,1,11.41-28.36,38.7,38.7,0,0,1,55.59,0,40.68,40.68,0,0,1,.14,56.36,37.14,37.14,0,0,1-27.86,11.7A37.39,37.39,0,0,1,100.86,190,38.81,38.81,0,0,1,89.52,162Zm68.63.14a30.32,30.32,0,0,0-8.72-21.63q-8.72-9.14-20.63-9.14a27.54,27.54,0,0,0-20.71,9.14,30.46,30.46,0,0,0-8.65,21.63,30.07,30.07,0,0,0,8.37,21.55,29.11,29.11,0,0,0,41.76-.07A29.75,29.75,0,0,0,158.15,162.11Z"/><path class="cls-1" d="M185.94,123.82h9.64v13.05q10.06-15,25.81-15a24.92,24.92,0,0,1,15,4.75,23.08,23.08,0,0,1,8.86,13.4,35.42,35.42,0,0,1,11.91-13.47,28.43,28.43,0,0,1,15.74-4.68,25.23,25.23,0,0,1,18,7.3q7.67,7.31,7.66,28.86v41.12H288.6V158q0-10.35-1.27-15.25a15.13,15.13,0,0,0-5.53-8.22A17,17,0,0,0,271,131.2a21.79,21.79,0,0,0-13.61,4.68A23.49,23.49,0,0,0,249,147.79q-2.26,7.23-2.27,21.83v29.5h-9.5V160.55q0-12-1.27-17.23a15.57,15.57,0,0,0-5.68-8.65,16.86,16.86,0,0,0-10.77-3.47,21.12,21.12,0,0,0-12,3.75,25.74,25.74,0,0,0-8.8,10.28q-3.18,6.53-3.19,22v31.91h-9.64Z"/><path class="cls-1" d="M319,123.82h9.64v13.05q10.07-15,25.81-15a25,25,0,0,1,15,4.75,23.13,23.13,0,0,1,8.86,13.4,35.42,35.42,0,0,1,11.91-13.47,28.41,28.41,0,0,1,15.74-4.68,25.25,25.25,0,0,1,18,7.3q7.65,7.31,7.66,28.86v41.12h-9.93V158q0-10.35-1.28-15.25a15.07,15.07,0,0,0-5.53-8.22A16.94,16.94,0,0,0,404,131.2a21.82,21.82,0,0,0-13.62,4.68,23.53,23.53,0,0,0-8.36,11.91q-2.28,7.23-2.27,21.83v29.5h-9.5V160.55q0-12-1.28-17.23a15.55,15.55,0,0,0-5.67-8.65,16.87,16.87,0,0,0-10.78-3.47,21.14,21.14,0,0,0-12,3.75,25.79,25.79,0,0,0-8.79,10.28q-3.19,6.53-3.19,22v31.91H319Z"/><path class="cls-1" d="M515.34,174.73l8.22,4.25q-12.19,22.7-36,22.69-17,0-28.07-11.7a39.3,39.3,0,0,1-11.06-28,39.79,39.79,0,0,1,11.13-28.36A36.26,36.26,0,0,1,487,121.84q16.44,0,27.58,10.92t11.55,29.77H458.33q.44,13.62,8.58,21.91a26.72,26.72,0,0,0,19.78,8.3Q505.83,192.74,515.34,174.73Zm0-20.56q-2-10.78-9.93-16.88a29.22,29.22,0,0,0-18.29-6.09q-21.27,0-27.79,23Z"/><path class="cls-1" d="M540.43,123.82h9.93v10.92a38,38,0,0,1,7.73-9.78,13.62,13.62,0,0,1,9-3.12,18.28,18.28,0,0,1,8.65,2.55l-5.1,8.22a8.46,8.46,0,0,0-4.4-1.27q-4.4,0-8.29,4.54a28.55,28.55,0,0,0-5.75,11.69q-1.85,7.17-1.84,26v25.53h-9.93Z"/><path class="cls-1" d="M580.71,123.82H636l-42.68,66.65h41.26v8.65h-58l42.68-66.79H580.71Z"/><path class="cls-1" d="M67.36,44.05A37.35,37.35,0,0,0,39.53,32.24a37.5,37.5,0,0,0-28,11.81c-.36.37-.7.74-1,1.12V20.29H0V63.57c0,4.15.08,5.84.08,9a39,39,0,0,0,11.4,28.12A37.53,37.53,0,0,0,39.53,112.4a37.33,37.33,0,0,0,28-11.75A39.11,39.11,0,0,0,78.82,72.53,39.45,39.45,0,0,0,67.36,44.05Zm-7,50.2a28,28,0,0,1-20.86,8.9,27.91,27.91,0,0,1-21.08-8.83,30.23,30.23,0,0,1-8.4-21.65A30.54,30.54,0,0,1,18.74,51a27.63,27.63,0,0,1,20.79-9.18q12,0,20.71,9.18A30.4,30.4,0,0,1,69,72.67,29.89,29.89,0,0,1,60.39,94.25Z"/></g></g></svg>